<?xml version="1.0" standalone="no"?>
<!DOCTYPE svg PUBLIC "-//W3C//DTD SVG 1.1//EN" "http://www.w3.org/Graphics/SVG/1.1/DTD/svg11.dtd" >
<svg xmlns="http://www.w3.org/2000/svg">
<metadata>Generated by IcoMoon</metadata>
<defs>
<font id="icomoon" horiz-adv-x="1024">
<font-face units-per-em="1024" ascent="960" descent="-64" />
<missing-glyph horiz-adv-x="1024" />
<glyph unicode="&#x20;" horiz-adv-x="512" d="" />
<glyph unicode="&#xe900;" glyph-name="chevron-down" d="M970.771 729.867l-458.773-457.277-458.77 457.277-53.229-53.402 511.999-510.332 512.001 510.332z" />
<glyph unicode="&#xe901;" glyph-name="close" d="M622.438 448l378.88 378.88c13.964 14.208 22.585 33.707 22.585 55.219s-8.621 41.011-22.596 55.23l0.011-0.011c-14.208 13.964-33.707 22.585-55.219 22.585s-41.011-8.621-55.23-22.596l-378.869-378.869-378.88 378.982c-14.208 13.964-33.707 22.585-55.219 22.585s-41.011-8.621-55.23-22.596l0.011 0.011c-13.964-14.208-22.585-33.707-22.585-55.219s8.621-41.011 22.596-55.23l378.869-378.869-378.88-378.88c-13.964-14.208-22.585-33.707-22.585-55.219s8.621-41.011 22.596-55.23l-0.011 0.011c14.208-13.964 33.707-22.585 55.219-22.585s41.011 8.621 55.23 22.596l378.869 378.869 378.88-378.88c14.137-14.162 33.681-22.924 55.27-22.924 43.129 0 78.092 34.963 78.092 78.092 0 21.539-8.72 41.041-22.823 55.169l0.001-0.001z" />
<glyph unicode="&#xe902;" glyph-name="dropdown-arrow" d="M0 704l512-512 512 512z" />
<glyph unicode="&#xe903;" glyph-name="facebook" d="M0 448c0 282.778 229.222 512 512 512s512-229.222 512-512-229.222-512-512-512-512 229.222-512 512zM548.301 164.019v278.554h76.902l10.189 96h-87.091l0.128 48.051c0 25.037 2.381 38.451 38.349 38.451h48.051v96h-76.902c-92.365 0-124.877-46.592-124.877-124.877v-57.651h-57.6v-96h57.6v-278.528h115.251z" />
<glyph unicode="&#xe904;" glyph-name="file" d="M895.866 752.742c-0.068 6.152-2.448 12.18-6.97 16.704l-183.53 183.532c-0.008 0.008-0.014 0.010-0.022 0.016-4.334 4.33-10.322 7.006-16.932 7.006h-509.856c-27.834 0-50.476-22.64-50.476-50.474v-923.050c0-27.832 22.64-50.474 50.474-50.474h666.888c27.832 0 50.474 22.64 50.474 50.474v766.018c0.004 0.088-0.042 0.162-0.050 0.248zM712.388 878.138l101.668-101.668h-99.144c-1.39 0-2.524 1.134-2.524 2.524v99.144zM847.966-13.526c0-1.39-1.132-2.522-2.522-2.522h-666.888c-1.39 0-2.522 1.132-2.522 2.522v923.052c0 1.39 1.132 2.522 2.522 2.522h485.88v-133.054c0-27.832 22.644-50.478 50.478-50.478h133.054v-742.042zM724.176 631.972h-424.352c-13.24 0-23.976-10.734-23.976-23.976 0-13.24 10.736-23.976 23.976-23.976h424.35c13.24 0 23.976 10.736 23.976 23.976 0.002 13.242-10.736 23.976-23.974 23.976zM724.176 487.294h-424.352c-13.24 0-23.976-10.736-23.976-23.976s10.736-23.976 23.976-23.976h424.35c13.24 0 23.976 10.736 23.976 23.976 0.002 13.24-10.736 23.976-23.974 23.976zM724.176 342.618h-424.352c-13.24 0-23.976-10.736-23.976-23.976 0-13.242 10.736-23.976 23.976-23.976h424.35c13.24 0 23.976 10.734 23.976 23.976 0.002 13.238-10.736 23.976-23.974 23.976zM512 197.938h-212.176c-13.24 0-23.976-10.736-23.976-23.976 0-13.242 10.736-23.976 23.976-23.976h212.176c13.24 0 23.976 10.734 23.976 23.976s-10.736 23.976-23.976 23.976z" />
<glyph unicode="&#xe905;" glyph-name="info" d="M453.967 625.843c1.872-3.744 3.744-7.488 5.616-10.296s4.68-5.616 6.552-8.424c2.808-2.808 5.616-5.616 9.36-8.424 2.808-1.872 6.552-4.68 11.232-5.616 3.744-1.872 7.488-2.808 12.168-3.744s8.424-0.936 12.168-0.936c3.744 0 8.424 0 12.168 0.936s7.488 1.872 10.296 3.744h0.936c3.744 1.872 7.488 3.744 11.232 6.552 2.808 1.872 5.616 4.68 8.424 7.488l0.936 0.936c2.808 2.808 4.68 5.616 6.552 8.424s3.744 5.616 4.68 9.36c0 0.936 0 0.936 0.936 1.872 1.872 3.744 2.808 8.424 3.744 12.168s0.936 8.424 0.936 12.168 0 8.424-0.936 12.168-1.872 7.488-3.744 12.168c-2.808 6.552-6.552 12.168-11.232 16.848-0.936 0.936-0.936 0.936-1.872 1.872-2.808 2.808-5.616 4.68-9.36 7.488-3.744 1.872-6.552 3.744-10.296 5.616s-7.488 2.808-11.232 3.744c-4.68 0.936-8.424 0.936-12.168 0.936s-8.424 0-12.168-0.936c-3.744-0.936-7.488-1.872-11.232-3.744h-0.936c-3.744-1.872-7.488-3.744-10.296-5.616-3.744-2.808-6.552-4.68-9.36-7.488s-5.616-5.616-7.488-8.424c-1.872-2.808-3.744-6.552-5.616-10.296s-2.808-7.488-3.744-11.232c-0.936-4.68-0.936-8.424-0.936-12.168s0-8.424 0.936-12.168c0.936-7.488 2.808-11.232 3.744-14.976zM584.073 283.261h-21.528v229.324c0 13.104-10.296 24.336-24.336 24.336h-98.282c-13.104 0-24.336-10.296-24.336-24.336v-50.545c0-13.104 10.296-24.336 24.336-24.336h19.656v-155.378h-19.656c-13.104 0-24.336-10.296-24.336-24.336v-50.545c0-13.104 10.296-24.336 24.336-24.336h144.146c13.104 0 24.336 10.296 24.336 24.336v50.545c0 14.040-11.232 25.272-24.336 25.272zM512 960c-282.676 0-512-229.324-512-512s229.324-512 512-512 512 229.324 512 512-229.324 512-512 512zM512 3.393c-245.236 0-444.607 199.371-444.607 444.607s199.371 444.607 444.607 444.607 444.607-199.371 444.607-444.607-199.371-444.607-444.607-444.607z" />
<glyph unicode="&#xe906;" glyph-name="instagram" d="M0 448c0 282.778 229.222 512 512 512s512-229.222 512-512-229.222-512-512-512-512 229.222-512 512zM512.026 721.075c-74.163 0-83.456-0.333-112.589-1.664-29.082-1.331-48.922-5.939-66.304-12.672-18.926-7.235-35.058-17.946-48.339-31.468l-0.020-0.020c-13.536-13.312-24.246-29.452-31.178-47.467l-0.31-0.917c-6.784-17.357-11.392-37.197-12.698-66.278-1.306-29.107-1.664-38.426-1.664-112.589s0.333-83.456 1.664-112.563c1.331-29.082 5.939-48.922 12.672-66.304 7.238-18.925 17.949-35.057 31.468-48.339l0.020-0.019c13.307-13.545 29.448-24.256 47.469-31.179l0.915-0.309c17.357-6.784 37.197-11.366 66.278-12.698 29.133-1.331 38.426-1.664 112.589-1.664s83.456 0.333 112.563 1.664c29.082 1.331 48.947 5.914 66.304 12.672 18.928 7.239 35.062 17.959 48.338 31.493l0.021 0.021c13.536 13.312 24.246 29.452 31.178 47.467l0.31 0.917c6.733 17.357 11.341 37.197 12.698 66.278 1.306 29.107 1.664 38.4 1.664 112.563s-0.358 83.456-1.664 112.589c-1.357 29.082-5.965 48.896-12.672 66.304-7.252 18.924-17.97 35.055-31.494 48.339l-0.020 0.019c-13.302 13.551-29.445 24.264-47.47 31.18l-0.914 0.308c-17.408 6.733-37.248 11.341-66.304 12.672-29.133 1.331-38.4 1.664-112.589 1.664h0.051zM487.526 671.846h24.499c72.909 0 81.562-0.256 110.336-1.536 26.624-1.229 41.088-5.683 50.688-9.421 12.774-4.966 21.837-10.88 31.411-20.429 9.549-9.549 15.462-18.662 20.429-31.411 3.738-9.6 8.192-24.064 9.395-50.688 1.306-28.774 1.587-37.427 1.587-110.31 0-72.858-0.256-81.51-1.587-110.31-1.203-26.624-5.658-41.062-9.395-50.688-4.621-12.3-11.582-22.775-20.408-31.34l-0.021-0.020c-8.592-8.849-19.076-15.81-30.804-20.236l-0.581-0.193c-9.626-3.738-24.064-8.192-50.688-9.395-28.8-1.306-37.453-1.613-110.362-1.613s-81.562 0.307-110.336 1.613c-26.624 1.229-41.088 5.658-50.714 9.395-12.318 4.619-22.81 11.581-31.392 20.409l-0.019 0.020c-8.844 8.595-15.804 19.078-20.236 30.803l-0.193 0.582c-3.738 9.626-8.192 24.064-9.395 50.688-1.306 28.8-1.587 37.453-1.587 110.362s0.256 81.51 1.587 110.31c1.203 26.624 5.658 41.062 9.395 50.688 4.941 12.749 10.88 21.862 20.429 31.411 8.604 8.844 19.095 15.804 30.828 20.236l0.583 0.193c9.626 3.763 24.064 8.192 50.688 9.421 25.216 1.152 34.97 1.485 85.862 1.536v-0.077zM657.766 626.534c-18.104 0-32.781-14.676-32.781-32.781s14.676-32.781 32.781-32.781v0c18.097 0 32.768 14.671 32.768 32.768s-14.671 32.768-32.768 32.768v0zM512.026 588.237c-77.451 0-140.237-62.786-140.237-140.237s62.786-140.237 140.237-140.237v0c77.451 0 140.237 62.786 140.237 140.237s-62.786 140.237-140.237 140.237v0zM512.026 539.008c0.643 0.016 1.4 0.026 2.159 0.026 50.276 0 91.034-40.757 91.034-91.034s-40.757-91.034-91.034-91.034c-0.759 0-1.516 0.009-2.271 0.028l0.112-0.002c-49.339 1.207-88.875 41.491-88.875 91.008s39.536 89.801 88.763 91.006l0.112 0.002z" />
<glyph unicode="&#xe907;" glyph-name="linkedin" d="M0 448c0 282.778 229.222 512 512 512s512-229.222 512-512-229.222-512-512-512-512 229.222-512 512zM361.83 535.936h-116.070v-348.621h116.045v348.621zM369.459 643.789c-0.768 34.176-25.19 60.211-64.87 60.211-39.706 0-65.664-26.035-65.664-60.211 0-33.485 25.19-60.262 64.154-60.262h0.742c40.448 0 65.638 26.778 65.638 60.262zM780.288 387.2c0 107.085-57.216 156.928-133.581 156.928-61.594 0-89.19-33.843-104.576-57.6v49.408h-116.045c1.536-32.717 0-348.621 0-348.621h116.045v194.688c0 10.419 0.742 20.813 3.814 28.288 8.371 20.813 27.469 42.342 59.52 42.342 42.010 0 58.803-31.949 58.803-78.797v-186.522h116.019v199.885z" />
<glyph unicode="&#xe908;" glyph-name="medium" d="M0 448c0 282.778 229.222 512 512 512s512-229.222 512-512-229.222-512-512-512-512 229.222-512 512zM429.67 585.882l-163.942 80.998c-1.143 0.612-2.495 0.987-3.931 1.024h-0.011c-0.037 0.001-0.081 0.001-0.125 0.001-1.631 0-3.091-0.733-4.067-1.888l-0.006-0.008c-0.996-1.291-1.597-2.932-1.597-4.714 0-0.134 0.003-0.267 0.010-0.399l-0.001 0.019v-347.699c0-5.888 4.378-12.902 9.728-15.565l151.501-74.854c2.099-1.024 4.096-1.536 5.914-1.536 5.12 0 8.704 3.917 8.704 10.47v350.669c-0.008 1.512-0.884 2.818-2.153 3.446l-0.023 0.010zM621.67 295.654l147.2-72.73c8.038-3.968 14.592 0.051 14.592 8.909v323.635l-161.792-259.84zM447.36 559.846v-178.176l160.307-79.206-160.307 257.382zM779.622 586.726l-167.091 82.56c-0.704 0.344-1.529 0.551-2.402 0.563h-0.183c-2.022 0-4.045-0.998-5.12-2.739l-103.014-165.376 114.97-184.627 164.454 264.064c0.367 0.583 0.585 1.292 0.585 2.052 0 1.533-0.887 2.859-2.175 3.493l-0.023 0.010z" />
<glyph unicode="&#xe909;" glyph-name="menu" d="M51.2 55.467c-28.277 0-51.2 22.923-51.2 51.2s22.923 51.2 51.2 51.2v0h921.6c28.277 0 51.2-22.923 51.2-51.2s-22.923-51.2-51.2-51.2v0zM51.2 396.8c-28.277 0-51.2 22.923-51.2 51.2s22.923 51.2 51.2 51.2v0h921.6c28.277 0 51.2-22.923 51.2-51.2s-22.923-51.2-51.2-51.2v0zM51.2 738.133c-28.277 0-51.2 22.923-51.2 51.2s22.923 51.2 51.2 51.2v0h921.6c28.277 0 51.2-22.923 51.2-51.2s-22.923-51.2-51.2-51.2v0z" />
<glyph unicode="&#xe90a;" glyph-name="paperplane" d="M386.313 74.695c-30.682 0-25.145 11.795-36.181 40.96l-89.771 295.822 557.511 347.932 65.384-17.294-54.348-147.911zM386.276 74.695c19.145 0.416 36.088 9.495 47.119 23.46l0.099 0.13c20.48 19.646 283.383 275.532 283.383 275.532l-161.337 39.367-149.542-94.473-19.646-236.165v-7.851zM402.091 315.563l381.042-281.031c43.311-23.59 74.828-11.795 85.788 40.126l155.079 730.529c15.701 63.791-24.424 92.122-66.143 73.235l-910.033-351.118c-62.199-25.183-61.364-59.847-11.036-74.828l233.813-73.235 540.786 340.84c25.183 15.701 48.811 7.092 29.924-10.202z" />
<glyph unicode="&#xe90b;" glyph-name="reddit" d="M0 448c0-282.778 225.792-512 504.346-512 278.528 0 504.32 229.222 504.32 512s-225.818 512-504.346 512c-278.528 0-504.32-229.222-504.32-512zM508.877 529.818c78.157-2.893 148.352-26.547 199.296-63.181 13 14.448 31.739 23.512 52.596 23.578h0.012c40.090 0 72.576-33.92 72.576-75.776 0-30.95-17.715-57.549-43.162-69.325 1.152-7.373 1.741-14.848 1.741-22.451 0-114.586-133.965-207.462-299.213-207.462-165.274 0-299.238 92.877-299.238 207.462 0 7.808 0.64 15.539 1.843 23.117-24.653 12.109-41.728 38.298-41.728 68.634 0 41.882 32.512 75.802 72.576 75.802 20.564-0.060 39.060-8.864 51.974-22.888l0.045-0.050c50.688 36.147 120.192 59.52 197.53 62.515l41.728 195.814 134.886-31.002c8.492 20.71 28.498 35.032 51.848 35.032 30.864 0 55.885-25.020 55.885-55.885s-25.020-55.885-55.885-55.885c-28.832 0-52.564 21.833-55.565 49.868l-0.021 0.246-106.24 24.576-33.485-162.739zM370.637 215.194c5.581-4.966 12.646-9.805 21.325-14.234 23.654-12.032 55.398-19.123 96.256-19.123 40.627 0 73.83 6.989 100.096 18.79 9.472 4.25 17.408 8.858 23.91 13.568 3.268 2.293 6.136 4.69 8.789 7.304l-0.008-0.008c2.763 2.865 4.465 6.77 4.465 11.072 0 8.814-7.145 15.96-15.96 15.96-4.512 0-8.587-1.872-11.49-4.883l-0.005-0.005-0.614-0.563c-1.134-0.976-2.385-1.959-3.679-2.885l-0.161-0.11c-5.289-3.78-11.31-7.237-17.666-10.078l-0.663-0.265c-22.118-9.933-50.867-15.974-87.040-15.974-35.968 0-62.72 5.965-81.741 15.642-10.394 5.299-15.744 10.061-17.306 12.314-2.923 4.135-7.684 6.803-13.069 6.803-8.812 0-15.955-7.143-15.955-15.955 0-3.427 1.080-6.602 2.919-9.202l-0.034 0.050c1.434-2.074 3.942-4.915 7.603-8.192zM374.579 306.714c0.356-0.008 0.775-0.013 1.196-0.013 30.85 0 55.859 25.009 55.859 55.859s-25.009 55.859-55.859 55.859c-0.42 0-0.84-0.005-1.258-0.014l0.062 0.001c-30.331-0.67-54.663-25.417-54.663-55.846s24.332-55.176 54.601-55.845l0.062-0.001zM608.41 306.714c0.356-0.008 0.775-0.013 1.196-0.013 30.85 0 55.859 25.009 55.859 55.859s-25.009 55.859-55.859 55.859c-0.42 0-0.84-0.005-1.258-0.014l0.062 0.001c-30.331-0.67-54.663-25.417-54.663-55.846s24.332-55.176 54.601-55.845l0.062-0.001z" />
<glyph unicode="&#xe90c;" glyph-name="telegram" d="M426.854 343.834l-8.704-130.509c12.8 0 18.432 5.862 25.6 12.8l61.491 59.802 127.923-94.515c23.552-13.005 40.55-6.272 46.413 21.862l83.968 395.776c8.627 34.483-13.133 50.125-35.635 39.885l-493.184-190.157c-33.664-13.517-33.485-32.282-6.144-40.653l126.566-39.501 292.992 184.832c13.824 8.397 26.522 3.891 16.128-5.376l-237.44-214.221zM512-64c-282.778 0-512 229.222-512 512s229.222 512 512 512 512-229.222 512-512-229.222-512-512-512z" />
<glyph unicode="&#xe90d;" glyph-name="tick" d="M1009.004 809.008c-19.994 19.996-52.41 19.996-72.408 0l-613.408-613.414-235.784 235.784c-19.994 19.996-52.41 19.994-72.408 0-19.996-19.994-19.996-52.41 0-72.406l271.988-271.984c19.988-19.994 52.428-19.98 72.408 0l649.612 649.612c19.996 19.994 19.994 52.412 0 72.408z" />
<glyph unicode="&#xe90e;" glyph-name="twitter" d="M0 448c0 282.778 229.222 512 512 512s512-229.222 512-512-229.222-512-512-512-512 229.222-512 512zM496.666 543.846l1.075-17.715-17.92 2.15c-65.178 8.32-122.112 36.531-170.47 83.891l-23.629 23.501-6.093-17.357c-12.877-38.682-4.659-79.539 22.221-107.008 14.336-15.206 11.085-17.357-13.619-8.32-8.602 2.893-16.128 5.069-16.819 3.968-2.509-2.534 6.067-35.43 12.877-48.435 9.318-18.099 28.288-35.814 49.075-46.285l17.536-8.32-20.762-0.358c-20.070 0-20.787-0.358-18.637-7.936 7.168-23.526 35.456-48.461 66.97-59.315l22.221-7.603-19.354-11.571c-27.564-16.113-60.538-25.942-95.742-26.748l-0.233-0.004c-16.128-0.358-29.363-1.792-29.363-2.893 0-3.61 43.699-23.859 69.12-31.821 76.288-23.501 166.912-13.363 234.931 26.778 48.358 28.544 96.691 85.325 119.27 140.288 12.16 29.261 24.346 82.79 24.346 108.442 0 16.64 1.075 18.816 21.12 38.707 11.827 11.571 22.938 24.218 25.088 27.827 3.584 6.861 3.226 6.861-15.053 0.717-30.438-10.829-34.739-9.395-19.712 6.886 11.11 11.571 24.371 32.512 24.371 38.656 0 1.101-5.376-0.691-11.469-3.942-6.451-3.635-20.762-9.062-31.488-12.288l-19.354-6.144-17.562 11.904c-9.651 6.528-23.296 13.747-30.438 15.923-18.253 5.069-46.208 4.352-62.669-1.459-44.774-16.256-73.062-58.214-69.837-104.115z" />
<glyph unicode="&#xe90f;" glyph-name="youtube" d="M0 448c0 282.778 225.792 512 504.32 512s504.346-229.222 504.346-512-225.792-512-504.32-512c-278.554 0-504.346 229.222-504.346 512zM766.822 551.066s-5.248 38.451-21.35 55.373c-20.429 22.272-43.315 22.349-53.811 23.654-75.187 5.632-187.93 5.632-187.93 5.632h-0.256s-112.742 0-187.904-5.632c-10.496-1.28-33.408-1.408-53.837-23.654-16.128-16.922-21.35-55.373-21.35-55.373s-5.376-45.184-5.376-90.342v-42.342c0-45.158 5.376-90.317 5.376-90.317s5.248-38.451 21.35-55.398c20.429-22.221 47.283-21.53 59.238-23.859 42.957-4.275 182.63-5.606 182.63-5.606s112.896 0.179 188.058 5.837c10.496 1.28 33.382 1.408 53.811 23.629 16.102 16.947 21.35 55.398 21.35 55.398s5.376 45.158 5.376 90.317v42.342c0 45.158-5.376 90.342-5.376 90.342zM448.154 367.104l-0.026 156.774 145.152-78.669z" />
<glyph unicode="&#xe910;" glyph-name="right-arrow" d="M689.55 797.181c-13.95 14.438-37.168 14.438-51.606 0-13.95-13.95-13.95-37.168 0-51.086l261.674-261.674h-863.49c-20.129-0.033-36.128-16.032-36.128-36.16s15.999-36.648 36.128-36.648h863.49l-261.674-261.187c-13.95-14.438-13.95-37.689 0-51.606 14.438-14.438 37.689-14.438 51.606 0l323.622 323.622c14.438 13.95 14.438 37.168 0 51.086l-323.622 323.654z" />
<glyph unicode="&#xe911;" glyph-name="calendar" horiz-adv-x="896" d="M24 576h848c13.2 0 24-10.8 24-24v-520c0-53-43-96-96-96h-704c-53 0-96 43-96 96v520c0 13.2 10.8 24 24 24zM896 664v72c0 53-43 96-96 96h-96v104c0 13.2-10.8 24-24 24h-80c-13.2 0-24-10.8-24-24v-104h-256v104c0 13.2-10.8 24-24 24h-80c-13.2 0-24-10.8-24-24v-104h-96c-53 0-96-43-96-96v-72c0-13.2 10.8-24 24-24h848c13.2 0 24 10.8 24 24z" />
<glyph unicode="&#xe912;" glyph-name="file-blank" horiz-adv-x="768" d="M448 688v272h-400c-26.6 0-48-21.4-48-48v-928c0-26.6 21.4-48 48-48h672c26.6 0 48 21.4 48 48v656h-272c-26.4 0-48 21.6-48 48zM768 716.2v-12.2h-256v256h12.2c12.8 0 25-5 34-14l195.8-196c9-9 14-21.2 14-33.8z" />
<glyph unicode="&#xe913;" glyph-name="chevron-left" d="M793.867 906.774l-53.402 53.226-510.334-512 510.334-512 53.402 53.226-457.278 458.774z" />
<glyph unicode="&#xe914;" glyph-name="chevron-right" d="M283.533 960l-53.402-53.226 457.281-458.774-457.281-458.774 53.402-53.226 510.334 512z" />
</font>
</defs>
</svg>
