<svg xmlns="http://www.w3.org/2000/svg" width="42" height="42" viewBox="0 0 42 42">
    <g fill="none" fill-rule="evenodd">
        <path fill="#584C99" d="M41.988 20.994c0 11.6-9.397 21-20.997 21-11.593 0-20.991-9.4-20.991-21C0 9.4 9.398 0 20.991 0c11.6 0 20.997 9.4 20.997 20.994"/>
        <path fill="#F6AE1A" d="M34.787 12.219a2.714 2.714 0 0 0-2.713-2.713H9.914a2.711 2.711 0 1 0 0 5.424h22.16a2.714 2.714 0 0 0 2.713-2.711"/>
        <path fill="#FFF" d="M32.074 19.423h-8.83V32.79a2.71 2.71 0 0 0 2.708 2.71 2.712 2.712 0 0 0 2.712-2.71v-7.943h3.41a2.714 2.714 0 0 0 2.713-2.713 2.714 2.714 0 0 0-2.713-2.712zm-22.16 0a2.711 2.711 0 0 0-2.712 2.712 2.71 2.71 0 0 0 2.713 2.713h3.408v7.943a2.71 2.71 0 1 0 5.422 0V19.423h-8.83z"/>
    </g>
</svg>
